<svg viewBox="0 0 496 155">
  <g>
    <path d="M128.02 53.012c-6.209-13.955-13.718-24.7-22.526-32.237-4.352-3.606-8.915-5.412-13.69-5.412-7.96 0-14.01 5.042-18.148 15.123-3.184 7.537-4.776 15.867-4.776 24.993 0 6.474.53 12.524 1.592 18.148 2.652 14.86 6.631 26.266 11.94 34.226 7.322 11.039 17.615 16.556 30.882 16.556 6.473 0 11.94-2.652 16.397-7.96 4.14-4.88 6.632-12.044 7.483-21.49.104-.849.159-1.91.159-3.184 0-11.885-3.105-24.807-9.314-38.763ZM93.713 79.517c-5.73-5.094-10.188-12.258-13.372-21.49-1.806-4.988-2.707-10.349-2.707-16.08 0-5.623.955-10.506 2.866-14.645 1.473-3.006 3.339-5.138 5.592-6.407-2.595 5.063-3.618 11.086-2.56 16.914.286 2.02.924 3.968 1.653 5.862l1.254 2.778c.476.892 1.015 1.746 1.524 2.621 2.083 3.468 4.768 6.443 7.55 9.214 2.813 2.742 5.791 5.221 8.66 7.666 2.885 2.422 5.61 4.927 7.576 7.783a13.005 13.005 0 0 1 2.23 8.823c-2.266 1.36-5.085 2.055-8.486 2.055-4.246 0-8.173-1.696-11.78-5.094Zm22.985.79a14.47 14.47 0 0 0-.004-2.352c-.186-2.127-.935-4.188-1.93-6.023-.994-1.847-2.25-3.484-3.593-4.967-1.337-1.495-2.749-2.856-4.155-4.191-2.835-2.644-5.703-5.098-8.355-7.706-2.64-2.598-5.146-5.317-7.141-8.324-2.163-2.91-3.587-6.236-4.567-9.67-1.46-5.416-1.129-11.344.792-16.927a11.628 11.628 0 0 1 3.899-.645c5.73 0 11.566 4.353 17.51 13.054 4.777 7.004 8.12 14.115 10.03 21.331a48.7 48.7 0 0 1 1.591 12.417c0 6.296-1.366 10.954-4.077 14.002ZM68.95 99.358c0 7.17-2.03 13.075-6.089 17.712-4.23 4.894-9.893 7.339-16.996 7.339-7.02 0-12.982-1.35-17.885-4.053-4.905-2.703-9.386-7.01-13.445-12.924-2.368-3.377-4.565-8.403-6.595-15.076-1.693-5.826-2.79-11.275-3.298-16.344C3.964 70.354 3.627 64.4 3.627 58.15c0-10.726 1.057-18.793 3.171-24.2 4.65-12.245 12.303-18.37 22.958-18.37 8.709 0 14.67 4.23 17.884 12.685.844 2.453 1.27 4.44 1.27 5.961 0 3.383-1.06 5.074-3.172 5.074-1.522 0-2.918-1.056-4.186-3.171-1.015-1.86-1.522-3.679-1.522-5.454 0-1.015.21-2.134.634-3.361.423-1.225.634-1.923.634-2.093 0-1.944-1.353-3.635-4.058-5.074-2.2-1.183-4.905-1.776-8.118-1.776-2.03 0-4.103.508-6.215 1.518-4.059 1.943-7.189 5.193-9.386 9.75-1.861 4.05-2.79 8.523-2.79 13.418 0 8.44 2.492 16.88 7.483 25.319 5.835 9.873 13.952 14.81 24.353 14.81 3.466 0 6.257-.749 8.371-2.251 1.183-.832 2.452-2.293 3.805-4.378 1.015-1.584 1.945-2.376 2.791-2.376 1.776 0 3.806 1.982 6.088 5.945 1.69 2.953 2.918 5.78 3.679 8.479 1.098 3.795 1.649 7.38 1.649 10.753ZM203.147 99.575c0 8.385-1.779 14.673-5.333 18.864-3.558 4.194-8.677 6.289-15.363 6.289-10.72 0-19.316-4.403-25.789-13.214-6.474-8.807-9.71-21.436-9.71-37.887 0-2.44.291-6.129.875-11.064.583-4.935.876-8.621.876-11.063 0-4.88-.691-9.923-2.07-15.124-1.699-6.472-3.927-10.77-6.685-12.894-.319-.212-.585-.319-.797-.319-.317 0-.903.107-1.75.319-.851.214-1.54.318-2.07.318-1.7 0-3.502-.415-5.412-1.251-2.334-.938-3.503-2.241-3.503-3.91 0-2.503 1.647-3.753 4.935-3.753 3.183 0 5.994.85 8.438 2.546 5.412 3.928 10.24 12.524 14.486 25.79a790.824 790.824 0 0 1 4.298 14.645c1.803 5.52 3.925 9.924 6.367 13.213 3.077 4.139 7.164 7.111 12.258 8.915 2.333.85 5.2 1.273 8.596 1.273 3.714 0 6.898-1.114 9.552-3.343.74-.53 1.378-.796 1.91-.796 1.486 0 2.6 1.062 3.343 3.184 1.697 4.99 2.548 11.41 2.548 19.262ZM359.153 109.562c.211 9.9-3.82 14.847-12.099 14.847-5.2 0-9.817-2.44-13.85-7.323-3.397-3.925-5.785-8.7-7.163-14.327-.955-3.395-1.433-7.164-1.433-11.302-.106-1.485-.054-3.662.16-6.528.211-2.865.318-4.987.318-6.367-.107-4.032-1.17-7.428-3.183-10.188-2.23-3.184-5.15-4.776-8.756-4.776h-3.502c-3.929 0-7.59-.477-10.984-1.433 2.014 8.194 4.668 14.685 7.958 19.471.742 1.065 3.078 3.885 7.005 8.46 2.866 3.405 4.88 6.437 6.05 9.096 1.696 3.619 2.6 7.502 2.706 11.651.105 4.149-1.063 7.447-3.503 9.895-2.442 2.447-5.73 3.67-9.87 3.67-10.506 0-17.51-6.62-21.013-19.866-.743-2.649-1.168-6.78-1.273-12.396 0-3.284.582-8.187 1.751-14.704 1.167-6.516 1.75-11.416 1.75-14.702-.105-6.462-.743-12.027-1.91-16.688-2.76-11.02-5.784-18.332-9.073-21.934-.425-.53-1.328-.636-2.706-.318h-2.547c-1.806 0-3.503-.323-5.095-.972-2.014-.97-3.024-2.27-3.024-3.89 0-2.702 2.388-4.052 7.164-4.052 3.502 0 6.154.902 7.96 2.706h-.16c.53.318 1.167.425 1.91.318 2.44-.472 6.102-1.127 10.984-1.957 4.033-.712 7.057-1.067 9.074-1.067 7.746 0 14.539 2.45 20.377 7.344 6.472 5.428 9.763 12.718 9.87 21.872.211 6.601-2.495 12.081-8.12 16.444 2.652 1.704 5.254 4.258 7.801 7.664l6.686 8.941c1.485 1.704 4.14 4.31 7.96 7.823 7.745 7.131 11.673 15.328 11.78 24.588Zm-31.997-65.82c0-3.851-.373-6.741-1.115-8.67-1.806-5.243-5.467-9.307-10.984-12.197-4.353-2.353-8.703-3.532-13.053-3.532-5.309 0-11.144.748-17.512 2.246 2.651 4.07 5.677 11.666 9.074 22.794.637 2.142 1.592 5.298 2.866 9.472 3.607 2.676 8.86 4.012 15.76 4.012 4.243 0 7.825-1.336 10.745-4.012 2.918-2.677 4.323-6.047 4.219-10.114ZM425.058 102.281c0 7.005-2.468 12.497-7.403 16.477-4.934 3.98-10.96 5.97-18.068 5.97-23.242 0-35.34-18.519-36.295-55.558a987.64 987.64 0 0 1-.478-18.307c-.425-6.686-1.592-12.68-3.503-17.99-.532-1.484-1.54-3.554-3.024-6.208-1.806-3.183-3.132-4.775-3.98-4.775-.533 0-1.433.16-2.706.477-1.274.318-2.229.478-2.865.478-4.88 0-7.324-1.644-7.324-4.935 0-2.652 2.388-3.98 7.164-3.98 2.97 0 5.676 1.17 8.118 3.502a9.512 9.512 0 0 0 3.026.478c3.395 0 8.437-.53 15.123-1.592 6.686-1.06 11.725-1.592 15.122-1.592 3.185 0 5.255.16 6.21.478 2.121.532 3.235 1.91 3.343 4.139 1.59 2.547 2.388 5.412 2.388 8.596 0 3.08-.797 4.617-2.388 4.617l-.955-.956c-.108-.636-.267-1.592-.478-2.865-1.169-5.73-8.12-8.596-20.854-8.596-9.34 0-15.442.425-18.308 1.273 1.38 2.124 3.448 5.308 6.21 9.552 1.166 2.017 2.519 5.148 4.059 9.392 1.537 4.246 2.838 7.27 3.9 9.074.211.425 5.198.744 14.963.955 11.355.214 17.034 2.495 17.034 6.845 0 2.229-1.592 3.343-4.776 3.343-2.653 0-5.491-1.246-8.517-3.74-3.024-2.493-6.606-3.742-10.745-3.742-4.246 0-6.368.426-6.368 1.274v.159c1.274 7.537 4.35 13.957 9.234 19.262 5.305 5.838 11.673 8.756 19.103 8.756 2.97 0 5.65-1.008 8.039-3.025 2.388-2.015 3.793-3.024 4.219-3.024 3.076 0 5.89 3.609 8.436 10.824 2.23 5.945 3.344 10.932 3.344 14.964ZM487.46 103.236c0 4.99-1.433 9.766-4.298 14.328-2.866 4.564-8.385 6.845-16.556 6.845-11.144 0-20.166-4.562-27.063-13.69-3.08-4.14-5.89-9.975-8.437-17.512-2.547-7.533-3.82-13.85-3.82-18.943 0-2.97.74-4.457 2.228-4.457.637 0 1.22.477 1.752 1.432 3.925 8.067 9.603 12.099 17.032 12.099 6.473 0 9.712-2.866 9.712-8.597 0-5.198-3.77-10.506-11.303-15.919-9.13-6.472-14.169-10.133-15.124-10.984-5.518-4.987-8.277-10.188-8.277-15.6 0-5.307 2.07-9.553 6.208-12.736 3.82-2.97 8.49-4.458 14.01-4.458 4.986 0 8.966.93 11.938 2.786 2.97 1.858 5.413 5.07 7.323 9.632 1.378 3.183 2.07 5.571 2.07 7.163 0 2.972-1.115 4.457-3.344 4.457-1.91 0-3.556-1.166-4.934-3.502-1.062-2.015-1.593-4.032-1.593-6.05 0-1.802.371-3.128 1.115-3.979-1.373-4.35-5.751-6.527-13.136-6.527-2.112 0-4.169.478-6.174 1.433-5.487 2.547-8.23 6.422-8.23 11.621 0 5.308 3.174 9.87 9.527 13.69 3.07 1.7 7.725 4.246 13.969 7.642 11.64 6.686 20.11 13.267 25.403 19.74 6.666 8.384 10.002 18.413 10.002 30.086ZM265.628 53.012c-6.208-13.955-13.717-24.7-22.525-32.237-4.353-3.606-8.915-5.412-13.69-5.412-7.96 0-14.01 5.042-18.148 15.123-3.184 7.537-4.776 15.867-4.776 24.993 0 6.474.53 12.524 1.592 18.148 2.651 14.86 6.63 26.266 11.939 34.226 7.322 11.039 17.616 16.556 30.883 16.556 6.473 0 11.94-2.652 16.396-7.96 4.14-4.88 6.632-12.044 7.483-21.49.104-.849.16-1.91.16-3.184 0-11.885-3.105-24.807-9.314-38.763Zm-34.305 26.505c-5.731-5.094-10.189-12.258-13.372-21.49-1.806-4.988-2.707-10.349-2.707-16.08 0-5.623.955-10.506 2.866-14.645 1.473-3.006 3.338-5.138 5.592-6.407-2.596 5.063-3.618 11.086-2.56 16.914.286 2.02.923 3.968 1.652 5.862l1.255 2.778c.476.892 1.015 1.746 1.524 2.621 2.083 3.468 4.768 6.443 7.55 9.214 2.812 2.742 5.79 5.221 8.66 7.666 2.884 2.422 5.61 4.927 7.576 7.783a13.005 13.005 0 0 1 2.23 8.823c-2.266 1.36-5.086 2.055-8.486 2.055-4.246 0-8.174-1.696-11.78-5.094Zm22.984.79c.055-.778.07-1.562-.003-2.352-.186-2.127-.935-4.188-1.93-6.023-.995-1.847-2.25-3.484-3.593-4.967-1.337-1.495-2.75-2.856-4.155-4.191-2.835-2.644-5.704-5.098-8.355-7.706-2.64-2.598-5.146-5.317-7.141-8.324-2.163-2.91-3.587-6.236-4.568-9.67-1.459-5.416-1.128-11.344.793-16.927a11.628 11.628 0 0 1 3.898-.645c5.732 0 11.567 4.353 17.511 13.054 4.776 7.004 8.12 14.115 10.03 21.331a48.7 48.7 0 0 1 1.59 12.417c0 6.296-1.366 10.954-4.077 14.002Z"/>
  </g>
  <g>
    <path d="M128.02 53.012c-6.209-13.955-13.718-24.7-22.526-32.237-4.352-3.606-8.915-5.412-13.69-5.412-7.96 0-14.01 5.042-18.148 15.123-3.184 7.537-4.776 15.867-4.776 24.993 0 6.474.53 12.524 1.592 18.148 2.652 14.86 6.631 26.266 11.94 34.226 7.322 11.039 17.615 16.556 30.882 16.556 6.473 0 11.94-2.652 16.397-7.96 4.14-4.88 6.632-12.044 7.483-21.49.104-.849.159-1.91.159-3.184 0-11.885-3.105-24.807-9.314-38.763ZM93.713 79.517c-5.73-5.094-10.188-12.258-13.372-21.49-1.806-4.988-2.707-10.349-2.707-16.08 0-5.623.955-10.506 2.866-14.645 1.473-3.006 3.339-5.138 5.592-6.407-2.595 5.063-3.618 11.086-2.56 16.914.286 2.02.924 3.968 1.653 5.862l1.254 2.778c.476.892 1.015 1.746 1.524 2.621 2.083 3.468 4.768 6.443 7.55 9.214 2.813 2.742 5.791 5.221 8.66 7.666 2.885 2.422 5.61 4.927 7.576 7.783a13.005 13.005 0 0 1 2.23 8.823c-2.266 1.36-5.085 2.055-8.486 2.055-4.246 0-8.173-1.696-11.78-5.094Zm22.985.79a14.47 14.47 0 0 0-.004-2.352c-.186-2.127-.935-4.188-1.93-6.023-.994-1.847-2.25-3.484-3.593-4.967-1.337-1.495-2.749-2.856-4.155-4.191-2.835-2.644-5.703-5.098-8.355-7.706-2.64-2.598-5.146-5.317-7.141-8.324-2.163-2.91-3.587-6.236-4.567-9.67-1.46-5.416-1.129-11.344.792-16.927a11.628 11.628 0 0 1 3.899-.645c5.73 0 11.566 4.353 17.51 13.054 4.777 7.004 8.12 14.115 10.03 21.331a48.7 48.7 0 0 1 1.591 12.417c0 6.296-1.366 10.954-4.077 14.002ZM68.95 99.358c0 7.17-2.03 13.075-6.089 17.712-4.23 4.894-9.893 7.339-16.996 7.339-7.02 0-12.982-1.35-17.885-4.053-4.905-2.703-9.386-7.01-13.445-12.924-2.368-3.377-4.565-8.403-6.595-15.076-1.693-5.826-2.79-11.275-3.298-16.344C3.964 70.354 3.627 64.4 3.627 58.15c0-10.726 1.057-18.793 3.171-24.2 4.65-12.245 12.303-18.37 22.958-18.37 8.709 0 14.67 4.23 17.884 12.685.844 2.453 1.27 4.44 1.27 5.961 0 3.383-1.06 5.074-3.172 5.074-1.522 0-2.918-1.056-4.186-3.171-1.015-1.86-1.522-3.679-1.522-5.454 0-1.015.21-2.134.634-3.361.423-1.225.634-1.923.634-2.093 0-1.944-1.353-3.635-4.058-5.074-2.2-1.183-4.905-1.776-8.118-1.776-2.03 0-4.103.508-6.215 1.518-4.059 1.943-7.189 5.193-9.386 9.75-1.861 4.05-2.79 8.523-2.79 13.418 0 8.44 2.492 16.88 7.483 25.319 5.835 9.873 13.952 14.81 24.353 14.81 3.466 0 6.257-.749 8.371-2.251 1.183-.832 2.452-2.293 3.805-4.378 1.015-1.584 1.945-2.376 2.791-2.376 1.776 0 3.806 1.982 6.088 5.945 1.69 2.953 2.918 5.78 3.679 8.479 1.098 3.795 1.649 7.38 1.649 10.753ZM203.147 99.575c0 8.385-1.779 14.673-5.333 18.864-3.558 4.194-8.677 6.289-15.363 6.289-10.72 0-19.316-4.403-25.789-13.214-6.474-8.807-9.71-21.436-9.71-37.887 0-2.44.291-6.129.875-11.064.583-4.935.876-8.621.876-11.063 0-4.88-.691-9.923-2.07-15.124-1.699-6.472-3.927-10.77-6.685-12.894-.319-.212-.585-.319-.797-.319-.317 0-.903.107-1.75.319-.851.214-1.54.318-2.07.318-1.7 0-3.502-.415-5.412-1.251-2.334-.938-3.503-2.241-3.503-3.91 0-2.503 1.647-3.753 4.935-3.753 3.183 0 5.994.85 8.438 2.546 5.412 3.928 10.24 12.524 14.486 25.79a790.824 790.824 0 0 1 4.298 14.645c1.803 5.52 3.925 9.924 6.367 13.213 3.077 4.139 7.164 7.111 12.258 8.915 2.333.85 5.2 1.273 8.596 1.273 3.714 0 6.898-1.114 9.552-3.343.74-.53 1.378-.796 1.91-.796 1.486 0 2.6 1.062 3.343 3.184 1.697 4.99 2.548 11.41 2.548 19.262ZM359.153 109.562c.211 9.9-3.82 14.847-12.099 14.847-5.2 0-9.817-2.44-13.85-7.323-3.397-3.925-5.785-8.7-7.163-14.327-.955-3.395-1.433-7.164-1.433-11.302-.106-1.485-.054-3.662.16-6.528.211-2.865.318-4.987.318-6.367-.107-4.032-1.17-7.428-3.183-10.188-2.23-3.184-5.15-4.776-8.756-4.776h-3.502c-3.929 0-7.59-.477-10.984-1.433 2.014 8.194 4.668 14.685 7.958 19.471.742 1.065 3.078 3.885 7.005 8.46 2.866 3.405 4.88 6.437 6.05 9.096 1.696 3.619 2.6 7.502 2.706 11.651.105 4.149-1.063 7.447-3.503 9.895-2.442 2.447-5.73 3.67-9.87 3.67-10.506 0-17.51-6.62-21.013-19.866-.743-2.649-1.168-6.78-1.273-12.396 0-3.284.582-8.187 1.751-14.704 1.167-6.516 1.75-11.416 1.75-14.702-.105-6.462-.743-12.027-1.91-16.688-2.76-11.02-5.784-18.332-9.073-21.934-.425-.53-1.328-.636-2.706-.318h-2.547c-1.806 0-3.503-.323-5.095-.972-2.014-.97-3.024-2.27-3.024-3.89 0-2.702 2.388-4.052 7.164-4.052 3.502 0 6.154.902 7.96 2.706h-.16c.53.318 1.167.425 1.91.318 2.44-.472 6.102-1.127 10.984-1.957 4.033-.712 7.057-1.067 9.074-1.067 7.746 0 14.539 2.45 20.377 7.344 6.472 5.428 9.763 12.718 9.87 21.872.211 6.601-2.495 12.081-8.12 16.444 2.652 1.704 5.254 4.258 7.801 7.664l6.686 8.941c1.485 1.704 4.14 4.31 7.96 7.823 7.745 7.131 11.673 15.328 11.78 24.588Zm-31.997-65.82c0-3.851-.373-6.741-1.115-8.67-1.806-5.243-5.467-9.307-10.984-12.197-4.353-2.353-8.703-3.532-13.053-3.532-5.309 0-11.144.748-17.512 2.246 2.651 4.07 5.677 11.666 9.074 22.794.637 2.142 1.592 5.298 2.866 9.472 3.607 2.676 8.86 4.012 15.76 4.012 4.243 0 7.825-1.336 10.745-4.012 2.918-2.677 4.323-6.047 4.219-10.114ZM425.058 102.281c0 7.005-2.468 12.497-7.403 16.477-4.934 3.98-10.96 5.97-18.068 5.97-23.242 0-35.34-18.519-36.295-55.558a987.64 987.64 0 0 1-.478-18.307c-.425-6.686-1.592-12.68-3.503-17.99-.532-1.484-1.54-3.554-3.024-6.208-1.806-3.183-3.132-4.775-3.98-4.775-.533 0-1.433.16-2.706.477-1.274.318-2.229.478-2.865.478-4.88 0-7.324-1.644-7.324-4.935 0-2.652 2.388-3.98 7.164-3.98 2.97 0 5.676 1.17 8.118 3.502a9.512 9.512 0 0 0 3.026.478c3.395 0 8.437-.53 15.123-1.592 6.686-1.06 11.725-1.592 15.122-1.592 3.185 0 5.255.16 6.21.478 2.121.532 3.235 1.91 3.343 4.139 1.59 2.547 2.388 5.412 2.388 8.596 0 3.08-.797 4.617-2.388 4.617l-.955-.956c-.108-.636-.267-1.592-.478-2.865-1.169-5.73-8.12-8.596-20.854-8.596-9.34 0-15.442.425-18.308 1.273 1.38 2.124 3.448 5.308 6.21 9.552 1.166 2.017 2.519 5.148 4.059 9.392 1.537 4.246 2.838 7.27 3.9 9.074.211.425 5.198.744 14.963.955 11.355.214 17.034 2.495 17.034 6.845 0 2.229-1.592 3.343-4.776 3.343-2.653 0-5.491-1.246-8.517-3.74-3.024-2.493-6.606-3.742-10.745-3.742-4.246 0-6.368.426-6.368 1.274v.159c1.274 7.537 4.35 13.957 9.234 19.262 5.305 5.838 11.673 8.756 19.103 8.756 2.97 0 5.65-1.008 8.039-3.025 2.388-2.015 3.793-3.024 4.219-3.024 3.076 0 5.89 3.609 8.436 10.824 2.23 5.945 3.344 10.932 3.344 14.964ZM487.46 103.236c0 4.99-1.433 9.766-4.298 14.328-2.866 4.564-8.385 6.845-16.556 6.845-11.144 0-20.166-4.562-27.063-13.69-3.08-4.14-5.89-9.975-8.437-17.512-2.547-7.533-3.82-13.85-3.82-18.943 0-2.97.74-4.457 2.228-4.457.637 0 1.22.477 1.752 1.432 3.925 8.067 9.603 12.099 17.032 12.099 6.473 0 9.712-2.866 9.712-8.597 0-5.198-3.77-10.506-11.303-15.919-9.13-6.472-14.169-10.133-15.124-10.984-5.518-4.987-8.277-10.188-8.277-15.6 0-5.307 2.07-9.553 6.208-12.736 3.82-2.97 8.49-4.458 14.01-4.458 4.986 0 8.966.93 11.938 2.786 2.97 1.858 5.413 5.07 7.323 9.632 1.378 3.183 2.07 5.571 2.07 7.163 0 2.972-1.115 4.457-3.344 4.457-1.91 0-3.556-1.166-4.934-3.502-1.062-2.015-1.593-4.032-1.593-6.05 0-1.802.371-3.128 1.115-3.979-1.373-4.35-5.751-6.527-13.136-6.527-2.112 0-4.169.478-6.174 1.433-5.487 2.547-8.23 6.422-8.23 11.621 0 5.308 3.174 9.87 9.527 13.69 3.07 1.7 7.725 4.246 13.969 7.642 11.64 6.686 20.11 13.267 25.403 19.74 6.666 8.384 10.002 18.413 10.002 30.086ZM265.628 53.012c-6.208-13.955-13.717-24.7-22.525-32.237-4.353-3.606-8.915-5.412-13.69-5.412-7.96 0-14.01 5.042-18.148 15.123-3.184 7.537-4.776 15.867-4.776 24.993 0 6.474.53 12.524 1.592 18.148 2.651 14.86 6.63 26.266 11.939 34.226 7.322 11.039 17.616 16.556 30.883 16.556 6.473 0 11.94-2.652 16.396-7.96 4.14-4.88 6.632-12.044 7.483-21.49.104-.849.16-1.91.16-3.184 0-11.885-3.105-24.807-9.314-38.763Zm-34.305 26.505c-5.731-5.094-10.189-12.258-13.372-21.49-1.806-4.988-2.707-10.349-2.707-16.08 0-5.623.955-10.506 2.866-14.645 1.473-3.006 3.338-5.138 5.592-6.407-2.596 5.063-3.618 11.086-2.56 16.914.286 2.02.923 3.968 1.652 5.862l1.255 2.778c.476.892 1.015 1.746 1.524 2.621 2.083 3.468 4.768 6.443 7.55 9.214 2.812 2.742 5.79 5.221 8.66 7.666 2.884 2.422 5.61 4.927 7.576 7.783a13.005 13.005 0 0 1 2.23 8.823c-2.266 1.36-5.086 2.055-8.486 2.055-4.246 0-8.174-1.696-11.78-5.094Zm22.984.79c.055-.778.07-1.562-.003-2.352-.186-2.127-.935-4.188-1.93-6.023-.995-1.847-2.25-3.484-3.593-4.967-1.337-1.495-2.75-2.856-4.155-4.191-2.835-2.644-5.704-5.098-8.355-7.706-2.64-2.598-5.146-5.317-7.141-8.324-2.163-2.91-3.587-6.236-4.568-9.67-1.459-5.416-1.128-11.344.793-16.927a11.628 11.628 0 0 1 3.898-.645c5.732 0 11.567 4.353 17.511 13.054 4.776 7.004 8.12 14.115 10.03 21.331a48.7 48.7 0 0 1 1.59 12.417c0 6.296-1.366 10.954-4.077 14.002Z"/>
  </g>
  <text xml:space="preserve" x="5" y="143" font-family="Avenir" font-size="13.478" font-weight="800" letter-spacing="6.062">C  O  F  F  E  E    R  O  A  S  T  E  R  S</text>
</svg>